<svg width="121" height="18" viewBox="0 0 121 18" fill="none" xmlns="http://www.w3.org/2000/svg">
<path d="M10.8993 3.66126C10.8993 3.66126 10.5271 2.90475 10.4004 2.65326C9.55464 0.976977 9.5729 0.887737 8.71802 0.775174C8.4787 0.743737 8.35498 0.713315 8.35498 0.594667V0.0643006L8.42698 0.0125823C9.97143 0.0105541 13.4082 0.0105541 13.4082 0.0105541L13.54 0.0541597V0.582498C13.54 0.703174 13.4538 0.765033 13.2784 0.765033L12.9173 0.816751C12.0047 0.887737 12.1537 1.26092 12.7602 2.46869L18.5171 14.2473L18.7139 14.301L23.8248 2.17157C24.0023 1.68278 23.9749 1.33596 23.7468 1.13213C23.5176 0.933371 23.3563 0.815737 22.7641 0.791399L22.2844 0.767061C22.2256 0.767061 22.1699 0.745765 22.1161 0.706216C22.0634 0.668695 22.036 0.619005 22.036 0.559174V0.0541597L22.109 0.00244141C23.549 0.00244141 27.8832 0.00244141 27.8832 0.00244141L27.942 0.0541597V0.559174C27.942 0.696075 27.8639 0.765033 27.7098 0.765033C26.9533 0.798498 26.3925 0.962779 26.0295 1.25585C25.6654 1.55095 25.3815 1.9576 25.1776 2.48593C25.1776 2.48593 20.4773 13.2444 18.869 16.82C18.2535 17.9923 17.6481 17.8848 17.1157 16.7866C15.991 14.4704 12.8241 7.44379 12.8241 7.44379L10.8993 3.66126V3.66126Z" fill="#F8F9FA"/>
<path d="M20.1235 0.00450704C20.1235 0.00450704 16.8754 -0.0056338 15.4293 0.00450704L15.3573 0.0562254V0.559211C15.3573 0.62107 15.3837 0.669746 15.4364 0.707268C15.4901 0.746817 15.5449 0.767099 15.6037 0.767099L15.8359 0.792451C16.4272 0.816789 16.6989 0.971944 16.7801 1.0693C16.921 1.24169 16.991 1.42828 16.6492 2.17363L10.585 14.2686L10.4258 14.227C10.4258 14.227 6.08248 5.06885 4.82501 2.0053C4.6942 1.68789 4.63538 1.45262 4.63538 1.30761C4.63538 0.996282 4.91628 0.827944 5.47808 0.80462L6.13318 0.777239C6.30659 0.777239 6.39482 0.71031 6.39482 0.57138V0.0683944L6.336 0.0166761C6.336 0.0166761 1.13375 0.0105916 0.0588169 0.0166761L0 0.0683944V0.596732C0 0.692056 0.120676 0.750873 0.363042 0.777239C1.02321 0.812732 1.45724 0.918197 1.66614 1.09363C1.87403 1.2711 2.09408 1.71932 2.38614 2.41803C3.96507 6.2107 7.31966 12.9787 8.95335 16.8332C9.42389 17.8859 10.0151 18.0491 10.7331 16.8008C11.9763 14.4948 15.3472 7.45296 15.3472 7.45296L18.002 2.488C18.3113 1.96372 18.6095 1.49623 18.7606 1.2782C19.0374 0.879662 19.1926 0.80462 19.9491 0.769127C20.1032 0.769127 20.1813 0.700169 20.1813 0.561239V0.0582535L20.1235 0.00450704V0.00450704Z" fill="#F8F9FA"/>
<path d="M29.9999 15.7055C29.9999 16.2856 30.2635 16.6283 31.1072 16.7074L31.6609 16.7612C31.74 16.7612 31.8191 16.8129 31.8191 16.9183V17.472L31.7928 17.5258C31.7928 17.5258 29.7889 17.472 28.9716 17.472C28.2333 17.472 26.1768 17.5258 26.1768 17.5258L26.124 17.472V16.9183C26.124 16.8129 26.2031 16.7612 26.3086 16.7612L26.8359 16.7074C27.706 16.6283 27.9697 16.2065 27.9697 15.7055V6.92555C27.9697 6.34651 27.6522 6.18628 26.8359 6.10921L26.3086 6.05445C26.2031 6.05445 26.124 6.03011 26.124 5.94899V5.34155L26.1504 5.28882C26.1504 5.28882 28.2333 5.34155 29.0507 5.34155C29.7626 5.34155 31.7928 5.28882 31.7928 5.28882L31.8191 5.34155V5.92161C31.8191 6.00071 31.7664 6.05344 31.6609 6.05344L31.1072 6.10718C30.2899 6.18527 29.9999 6.39721 29.9999 6.92555V15.7055V15.7055Z" fill="#F8F9FA"/>
<path d="M37.7806 15.7055C37.7806 16.2856 38.1234 16.5756 38.888 16.7074L39.178 16.7612C39.2571 16.7865 39.3362 16.8129 39.3362 16.9183V17.472L39.3099 17.5258C39.3099 17.5258 37.6488 17.472 36.8578 17.472C36.1195 17.472 33.9575 17.5258 33.9575 17.5258L33.9048 17.472V16.9183C33.9048 16.8129 33.9839 16.7612 34.0893 16.7612L34.6167 16.7074C35.4077 16.6283 35.7504 16.2065 35.7504 15.7055V6.92555C35.7504 6.34651 35.4604 6.18628 34.6167 6.10921L34.0893 6.05445C33.9839 6.05445 33.9048 6.03011 33.9048 5.94899V5.34155L33.9312 5.28882C33.9312 5.28882 36.0932 5.34155 36.9105 5.34155C37.6498 5.34155 39.3099 5.28882 39.3099 5.28882L39.3362 5.34155V5.92161C39.3362 6.00071 39.2835 6.02707 39.178 6.05344L38.888 6.10718C38.0706 6.26437 37.7806 6.39721 37.7806 6.92555V10.9068C38.6507 10.9068 39.1517 10.4596 40.3118 9.21941C41.3664 8.05828 42.1838 7.08476 42.1838 6.58279C42.1838 6.37085 41.9465 6.13456 41.4192 6.05445C41.3137 6.0291 41.261 6.00172 41.261 5.92262V5.31518L41.2873 5.28983C41.2873 5.28983 43.423 5.34256 44.1876 5.34256C44.8731 5.34256 46.0332 5.28983 46.0332 5.28983L46.1123 5.31518V5.92262C46.1123 6.00172 46.0332 6.05445 45.9014 6.05445C44.8731 6.13355 44.1612 6.18628 43.2121 7.2673L40.9446 9.87654C40.4963 10.3521 40.3381 10.6412 40.3381 10.8531C40.3381 11.0113 40.4436 11.1421 40.5754 11.3003L44.5567 16.099C44.8731 16.4671 45.5059 16.6263 46.0332 16.7307L46.1651 16.7561C46.2442 16.7825 46.3496 16.8352 46.3496 16.9143V17.468L46.2705 17.4943C46.2705 17.4943 44.8731 17.468 44.1349 17.468C43.4757 17.468 42.5265 17.4943 42.5265 17.4943L42.5002 17.468V17.1516C42.5002 16.8078 42.4738 16.5198 42.1047 16.0979L39.178 12.4584C38.7825 11.9301 38.3607 11.8003 37.7806 11.8003V15.7055V15.7055V15.7055Z" fill="#F8F9FA"/>
<path d="M51.995 15.7055C51.995 16.2856 52.2586 16.6283 53.1024 16.7074L53.656 16.7612C53.7351 16.7612 53.8142 16.8129 53.8142 16.9183V17.472L53.7879 17.5258C53.7879 17.5258 51.784 17.472 50.9667 17.472C50.2284 17.472 48.1719 17.5258 48.1719 17.5258L48.1191 17.472V16.9183C48.1191 16.8129 48.1982 16.7612 48.3037 16.7612L48.831 16.7074C49.7011 16.6283 49.9648 16.2065 49.9648 15.7055V6.92555C49.9648 6.34651 49.6484 6.18628 48.831 6.10921L48.3037 6.05445C48.1982 6.05445 48.1191 6.03011 48.1191 5.94899V5.34155L48.1455 5.28882C48.1455 5.28882 50.2284 5.34155 51.0458 5.34155C51.7577 5.34155 53.7879 5.28882 53.7879 5.28882L53.8142 5.34155V5.92161C53.8142 6.00071 53.7615 6.05344 53.656 6.05344L53.1024 6.10718C52.285 6.18527 51.995 6.39721 51.995 6.92555V15.7055V15.7055Z" fill="#F8F9FA"/>
<path fill-rule="evenodd" clip-rule="evenodd" d="M56.1103 6.05454C57.3495 6.13364 57.6922 6.16 57.6922 6.97735L57.6943 15.8354C57.6943 16.3363 57.4306 16.5736 56.6133 16.6791L56.0596 16.7582C55.9541 16.7846 55.9014 16.8109 55.9014 16.9164V17.4701L55.9277 17.5228C55.9277 17.5228 57.9052 17.4701 58.6435 17.4701C59.4608 17.4701 61.5701 17.5228 61.5701 17.5228L61.5955 17.4701V16.9164C61.5955 16.8119 61.5164 16.7846 61.4109 16.7582L60.8826 16.6791C60.0378 16.5483 59.7214 16.4154 59.7214 15.8354V12.3043C60.197 12.5143 60.7244 12.568 61.3835 12.568C65.1255 12.568 65.8901 10.0906 65.8901 8.50761C65.8901 7.13454 65.2046 5.28992 61.4626 5.28992C60.9409 5.28992 60.3966 5.305 59.8901 5.31903C59.4495 5.33124 59.0376 5.34265 58.6942 5.34265C58.2494 5.34265 57.537 5.32481 56.941 5.30988C56.5124 5.29915 56.1439 5.28992 55.9784 5.28992L55.9257 5.31628V5.92271C55.9257 5.97645 55.9521 6.05454 56.1103 6.05454ZM61.4362 11.8034C60.9089 11.8034 60.2498 11.778 59.7224 11.5661L59.7214 6.97837C59.7214 6.29285 60.0378 6.05555 61.3044 6.05555C62.7525 6.05555 63.7808 6.55651 63.7808 8.824C63.7808 10.8522 63.0192 11.8034 61.4362 11.8034Z" fill="#F8F9FA"/>
<path d="M70.4311 17.472C69.6401 17.472 67.8218 17.5258 67.8218 17.5258L67.7944 17.472V16.892C67.7944 16.8403 67.8218 16.7612 67.9526 16.7612L68.5601 16.7074C69.3784 16.6283 69.6157 16.101 69.6157 15.5747V6.87383C69.6157 6.26538 69.2983 6.16093 68.5601 6.10921L67.9526 6.05445C67.7944 6.03011 67.7944 5.97637 67.7944 5.94899V5.34155L67.8218 5.28882C67.8218 5.28882 69.8774 5.34155 70.6683 5.34155H74.5442C75.3352 5.34155 77.2082 5.28882 77.2082 5.28882L77.2619 5.34155C77.2873 6.4753 77.4718 7.50561 77.6574 8.50651L76.9993 8.61197C76.7103 7.63541 76.2093 6.23902 74.5219 6.23902H72.4126C71.9116 6.23902 71.648 6.42358 71.648 6.87079V10.6949H73.6244C74.3637 10.6949 74.5472 10.3785 74.6537 9.85118L74.8109 9.29749C74.8109 9.2184 74.8646 9.16465 74.9691 9.16465H75.4163C75.47 9.16465 75.47 9.19203 75.47 9.24375C75.4163 9.8238 75.3118 10.5631 75.3118 11.1959C75.3118 11.854 75.4173 12.4087 75.47 13.0151L75.4163 13.0689H74.9691C74.8383 13.0689 74.7835 13.0151 74.7835 12.936L74.6517 12.357C74.5462 11.8286 74.3089 11.5386 73.6214 11.5386H71.6459V15.5737C71.6459 16.0736 71.9339 16.5746 72.4105 16.5746H74.9153C76.26 16.5746 76.9993 15.7308 77.3147 14.3588L77.9728 14.4379L77.4445 17.469L77.3917 17.5217C77.3917 17.5217 75.8361 17.469 75.0451 17.469L70.4311 17.472V17.472V17.472Z" fill="#F8F9FA"/>
<path fill-rule="evenodd" clip-rule="evenodd" d="M80.9531 16.7075L80.3467 16.7612C80.2422 16.7612 80.1885 16.8403 80.1905 16.9164V17.4701L80.2169 17.5228C80.2169 17.5228 82.2207 17.4701 83.0127 17.4701C83.3263 17.4701 83.6553 17.4778 84.0608 17.4874C84.7122 17.5028 85.5611 17.5228 86.8612 17.5228C89.7868 17.5228 93.0572 16.1538 93.0572 11.5387C93.0572 8.032 90.8942 5.28992 86.491 5.28992C86.1211 5.28992 85.2822 5.30527 84.5098 5.31941C83.8509 5.33147 83.2404 5.34265 83.0107 5.34265C82.5351 5.34265 80.2138 5.28992 80.2138 5.28992L80.1885 5.34265V5.92271C80.1885 6.0018 80.2696 6.05454 80.3751 6.05454L80.9531 6.1093C80.9734 6.1111 80.9934 6.11286 81.013 6.11459C81.8308 6.18674 82.0088 6.20245 82.0088 6.87392V15.5748C82.0088 16.3911 81.7451 16.6284 80.9531 16.7075ZM90.7633 11.9879C90.7633 15.6812 89.1266 16.7612 86.2273 16.7612C84.2225 16.7612 84.039 16.311 84.039 15.5748V6.87392C84.039 6.21273 84.6981 6.05454 85.7264 6.05454C90.1559 6.05454 90.7633 9.24687 90.7633 11.9879Z" fill="#F8F9FA"/>
<path d="M99.2821 15.7055C99.2821 16.2856 99.5457 16.6283 100.389 16.7074L100.943 16.7612C101.022 16.7612 101.101 16.8129 101.101 16.9183V17.472L101.075 17.5258C101.075 17.5258 99.0712 17.472 98.2548 17.472C97.5155 17.472 95.46 17.5258 95.46 17.5258L95.4062 17.472V16.9183C95.4062 16.8129 95.4853 16.7612 95.5908 16.7612L96.1192 16.7074C96.9882 16.6283 97.2529 16.2065 97.2529 15.7055V6.92555C97.2529 6.34651 96.9355 6.18628 96.1192 6.10921L95.5908 6.05445C95.4853 6.05445 95.4062 6.03011 95.4062 5.94899V5.34155L95.4326 5.28882C95.4326 5.28882 97.5155 5.34155 98.3309 5.34155C99.0428 5.34155 101.074 5.28882 101.074 5.28882L101.099 5.34155V5.92161C101.099 6.00071 101.046 6.05344 100.941 6.05344L100.387 6.10718C99.5701 6.18527 99.2801 6.39721 99.2801 6.92555L99.2821 15.7055V15.7055V15.7055Z" fill="#F8F9FA"/>
<path fill-rule="evenodd" clip-rule="evenodd" d="M108.169 16.7612L107.405 16.7075C106.429 16.6284 106.086 16.0473 106.35 15.3861L107.88 11.562C108.011 11.2202 108.169 11.1148 108.802 11.1148H114.286L115.895 15.5717C116.159 16.3089 115.788 16.6273 114.787 16.7054L114.049 16.7582C113.915 16.7582 113.862 16.8373 113.862 16.9701V17.4701L113.888 17.5228C113.888 17.5228 116.473 17.4701 117.395 17.4701C118.424 17.4701 120.454 17.5228 120.454 17.5228L120.533 17.4701V16.9701C120.533 16.8373 120.401 16.7582 120.269 16.7582L119.979 16.7328C118.925 16.6273 118.397 16.2329 118.027 15.2036L112.622 0.913094C112.412 0.38577 112.279 0.121094 111.911 0.121094C111.515 0.121094 111.303 0.38577 111.014 1.07129L105.162 14.7827C104.423 16.4702 103.766 16.6821 102.605 16.7612C102.472 16.7612 102.393 16.8403 102.393 16.9711V17.4721L102.447 17.5258C102.447 17.5258 104.134 17.4721 104.821 17.4721C105.454 17.4721 108.327 17.5258 108.327 17.5258L108.38 17.4721V16.9711C108.38 16.8403 108.275 16.7612 108.169 16.7612ZM111.307 2.96966L113.864 10.0084V10.0094H109.276C108.696 10.0094 108.512 9.93135 108.618 9.66667L111.254 2.96966H111.307Z" fill="#F8F9FA"/>
</svg>
